<?xml version="1.0" encoding="iso-8859-1"?>
<!-- Generator: Adobe Illustrator 18.0.0, SVG Export Plug-In . SVG Version: 6.00 Build 0)  -->
<!DOCTYPE svg PUBLIC "-//W3C//DTD SVG 1.1//EN" "http://www.w3.org/Graphics/SVG/1.1/DTD/svg11.dtd">
<svg version="1.1" id="Layer_1" xmlns="http://www.w3.org/2000/svg" xmlns:xlink="http://www.w3.org/1999/xlink" x="0px" y="0px"
	 viewBox="0 0 419.706 158.885" style="enable-background:new 0 0 419.706 158.885;" xml:space="preserve">
<g>
	<defs>
		<rect id="SVGID_1_" width="419.706" height="158.885"/>
	</defs>
	<path style="clip-path:url(#SVGID_2_);fill:#FFFFFF;" d="M414.15,66.229C411.551,26.057,317.981-0.59,205.149,6.701
		C92.312,13.996,2.949,52.478,5.555,92.653c2.594,40.178,96.169,66.826,208.997,59.529
		C327.395,144.88,416.751,106.404,414.15,66.229"/>
	<path style="clip-path:url(#SVGID_2_);fill:none;stroke:#FFFFFF;stroke-width:11;" d="M414.15,66.229
		C411.551,26.057,317.981-0.59,205.149,6.701C92.312,13.996,2.949,52.478,5.555,92.653c2.594,40.178,96.169,66.826,208.997,59.529
		C327.395,144.88,416.751,106.404,414.15,66.229"/>
	<path style="clip-path:url(#SVGID_2_);fill:#2C4592;" d="M217.182,143.177c-108.478,11.162-199.689-8.329-203.735-43.526
		c-4.042-35.205,80.61-72.789,189.077-83.948C310.991,4.54,402.206,24.024,406.253,59.229
		C410.301,94.431,325.649,132.017,217.182,143.177 M414.15,66.229C411.551,26.057,317.981-0.59,205.149,6.701
		C92.312,13.996,2.949,52.478,5.555,92.653c2.594,40.178,96.169,66.826,208.997,59.529
		C327.395,144.88,416.751,106.404,414.15,66.229"/>
	<path style="clip-path:url(#SVGID_2_);fill:#2C4592;" d="M106.388,93.402c7.79-12.966,15.796-25.88,23.916-38.789H118.97
		c-5.117,9.128-11.104,18.031-15.883,26.985h-0.115c1.077-8.846,2.04-17.857,3.488-26.985H93.32
		c-4.549,9.194-9.738,18.139-14.326,27.041h-0.117c1.157-8.902,1.275-17.847,2.525-27.041H69.824
		c-0.728,12.909-1.582,25.823-2.805,38.789h14.254c4.334-8.025,9.201-15.874,13.017-23.726h0.123
		c-1.556,7.852-1.826,15.701-2.857,23.726H106.388z"/>
	<polygon style="clip-path:url(#SVGID_2_);fill:#2C4592;" points="140.628,60.779 142.889,53.91 131.607,53.91 129.526,60.779 	"/>
	<path style="clip-path:url(#SVGID_2_);fill:#2C4592;" d="M130.464,93.402c2.768-9.654,5.615-19.364,9.369-29.016h-11.635
		c-3.434,11.571-6.322,20.232-9.83,29.016H130.464z"/>
	<path style="clip-path:url(#SVGID_2_);fill:#2C4592;" d="M156.206,64.384h-11.34c-2.956,9.715-6.148,19.425-10.058,29.012h11.564
		c2.018-6.217,4.137-12.792,6.006-15.868c1.605-2.738,4.166-4.777,7.125-4.777c3.375,0,3.491,2.618,2.684,5.476
		c-1.452,5.056-3.43,10.117-5.227,15.169h11.456c2.081-7.263,6.235-18.895,6.685-20.471c2.028-7.089-2.293-9.24-7.997-9.24
		c-4.473,0-8.471,1.162-12.189,4.595l-0.082-0.118L156.206,64.384z"/>
	<path style="clip-path:url(#SVGID_2_);fill:#2C4592;" d="M205.337,64.789c-2.758-0.755-5.73-1.098-9.518-1.098
		c-14.648,0-19.021,12.617-19.9,15.694c-2.756,9.593,1.18,14.716,10.664,14.716c2.908,0,5.909-0.352,8.967-1.048l3.869-8.667
		c-2.492,0.816-5.168,1.4-7.607,1.4c-4.358,0-6.036-2.271-4.786-6.633c1.302-4.533,4.903-7.155,9.377-7.155
		c2.505,0,4.83,0.584,6.987,1.398L205.337,64.789z"/>
	<path style="clip-path:url(#SVGID_2_);fill:#2C4592;" d="M254.974,64.384h-11.345c-2.96,9.715-6.144,19.425-10.06,29.012h11.574
		c2.013-6.217,4.13-12.792,5.999-15.868c1.605-2.738,4.17-4.777,7.131-4.777c3.373,0,3.491,2.618,2.674,5.476
		c-1.45,5.056-3.426,10.117-5.219,15.169h11.452c2.083-7.263,6.236-18.895,6.68-20.471c2.039-7.089-2.286-9.24-7.984-9.24
		c-4.481,0-8.478,1.162-12.193,4.595l-0.08-0.118L254.974,64.384z"/>
	<path style="clip-path:url(#SVGID_2_);fill:#2C4592;" d="M298.548,71.998l2.411-7.612h-6.509l2.475-7.617l-11.268,2.38
		l-1.851,5.237h-4.712l-2.474,7.612h4.366c-1.659,5.176-3.62,9.777-4.934,14.368c-1.791,6.223,1.502,7.735,7.084,7.735
		c2.555,0,5.196-0.293,7.88-0.938l3.757-8.02c-1.434,0.349-2.856,0.643-4.252,0.643c-2.443,0-2.391-1.81-1.756-4.011
		c1.107-3.844,2.101-6.516,3.207-9.777H298.548z"/>
	<path style="clip-path:url(#SVGID_2_);fill:#2C4592;" d="M317.258,71.825c3.778,0,4.565,2.965,3.575,6.402
		c-1.051,3.663-3.905,7.728-8.268,7.728c-3.834,0-4.545-3.196-3.599-6.507C310.055,75.661,312.959,71.825,317.258,71.825
		 M319.651,63.685c-9.714,0-19.18,5.644-22.111,15.876c-1.303,4.538-1.551,14.54,12.867,14.54c9.768,0,18.841-5.469,21.789-15.762
		C334.997,68.574,328.723,63.685,319.651,63.685"/>
	<path style="clip-path:url(#SVGID_2_);fill:#2C4592;" d="M351.313,64.384h-11.342c-2.957,9.715-6.15,19.425-10.062,29.012h11.568
		c2.016-6.217,4.137-12.792,6.008-15.868c1.601-2.738,4.162-4.777,7.119-4.777c3.381,0,3.504,2.618,2.682,5.476
		c-1.45,5.056-3.423,10.117-5.229,15.169h11.459c2.09-7.263,6.234-18.895,6.684-20.471c2.035-7.089-2.29-9.24-7.986-9.24
		c-4.477,0-8.475,1.162-12.188,4.595l-0.09-0.118L351.313,64.384z"/>
	<path style="clip-path:url(#SVGID_2_);fill:#2C4592;" d="M218.275,91.539c-2.424,1.682-5.014,2.492-8.791,2.534
		c-10.633,0.098-8.546-7.675-8.367-8.314c3.511-12.253,22.237-8.479,23.712-13.589c0.539-1.917-1.373-2.329-2.939-2.329
		c-4.067,0-8.753,1.34-12.928,2.73l3.199-7.085c4.884-1.045,9.746-1.802,14.218-1.802c9.175,0,11.325,3.08,9.933,7.905
		c-0.411,1.453-5.563,15.972-7.233,21.779h-11.143c0.188-0.5,0.391-1.011,0.587-1.518L218.275,91.539z M220.919,85.114
		c0.535-1.573,1.059-3.141,1.594-4.701c-2.58,1.513-9.328,1.748-10.319,5.173c-0.509,1.798,0.973,2.324,2.538,2.324
		C215.56,87.91,218.349,87.428,220.919,85.114"/>
	<path style="clip-path:url(#SVGID_2_);fill:#0096D6;" d="M289.991,107.941h-64.1H60.55c-4.922,0-10.468-6.666-5.075-6.666h301.481
		C346.059,104.943,325.941,107.941,289.991,107.941"/>
	<path style="clip-path:url(#SVGID_2_);fill:#2C4592;" d="M261.202,119.637h-64.094H39.556c-4.916,0-10.46-6.664-5.071-6.664
		h293.681C317.268,116.629,297.147,119.637,261.202,119.637"/>
</g>
</svg>
